<svg xmlns="http://www.w3.org/2000/svg" viewBox="0 0 1456.39 808.74"><defs><style>.cls-1{fill:#fff;}</style></defs><title>ed_glyph</title><g id="Layer_2" data-name="Layer 2"><g id="Layer_1-2" data-name="Layer 1"><g id="_Layer_" data-name=" Layer "><path class="cls-1" d="M1437.36,362.9,1398,323.41h0L1138.29,62.24,1099,22.75a65.83,65.83,0,0,0-92.84-.24L994.29,34.33c-.12.11-.22.23-.33.35L400.71,624.79,183.93,406.9l224.16-223L463,239.05,296,405.09,401.31,510.9,611.64,301.72c.47-.44.94-.87,1.4-1.33l13-12.89c25.6-25.46,33.06-64,.31-95.94l-.91-.86h0L494.21,58.76,454.94,19.28h0l-1.16-1.16h0a65.85,65.85,0,0,0-91.65.89L350.21,30.9l-.33.35L31.55,347.9l-.36.34L19.31,360A65.85,65.85,0,0,0,19,452.9l39.3,39.43c.11.12.23.22.35.33L314.27,749.6l.33.35,39.27,39.48.35.33,1.69,1.7h0a65.84,65.84,0,0,0,90.76-1.75L458.6,777.9c.34-.34.66-.69,1-1l592.58-589.45L1272.49,408.9l-216.15,215L892.2,458.9,786.35,564.15,1008.88,787.9h0l.62.62a65.84,65.84,0,0,0,92.85.25l12.76-12.7c.34-.34.66-.69,1-1l306.3-304.69a13.48,13.48,0,0,0,1-1l13.66-13.58A65.84,65.84,0,0,0,1437.36,362.9Z"/></g></g></g></svg>