<svg xmlns="http://www.w3.org/2000/svg" viewBox="0 0 8148.89 835"><defs><style>.cls-1{fill:#fff;}</style></defs><title>ed_logo</title><g id="Layer_2" data-name="Layer 2"><g id="_Layer_" data-name="&lt;Layer&gt;"><path class="cls-1" d="M1437.32,379,1398,339.51h0L1138.25,78.34,1099,38.85a65.83,65.83,0,0,0-92.84-.24L994.25,50.43c-.12.11-.22.23-.33.35L400.67,640.89,183.89,423,408.05,200l54.86,55.15L296,421.19,401.27,527,611.6,317.82c.47-.44.94-.87,1.4-1.33l13-12.89c25.6-25.46,33.06-64,.31-95.94l-.91-.86,0,0L494.17,74.86,454.9,35.38h0l-1.16-1.16,0,0a65.84,65.84,0,0,0-91.65.89L350.17,47l-.33.35L31.51,364l-.36.34L19.27,376.1A65.85,65.85,0,0,0,19,469L58.3,508.43c.11.12.23.22.35.33L314.23,765.7l.33.35,39.27,39.48.35.33,1.69,1.7.05,0a65.84,65.84,0,0,0,90.76-1.75L458.56,794c.34-.34.66-.69,1-1l592.58-589.45L1272.45,425,1056.3,640,892.16,475,786.31,580.25,1008.84,804h0l.62.62a65.85,65.85,0,0,0,92.85.25l12.76-12.7c.34-.34.66-.69,1-1l306.3-304.69c.34-.33.7-.64,1-1l13.66-13.58A65.85,65.85,0,0,0,1437.32,379Z"/><path class="cls-1" d="M2249.25,123H1927.89V359h279.25q33.75,0,33.75,33.73v46.54A33.73,33.73,0,0,1,2207.16,473H1927.89V711h327.35q33.65,0,33.65,33.73v46.54q0,33.75-33.65,33.73H1831.55q-33.66,0-33.66-33.7V42.7q0-33.71,33.64-33.7h417.72q33.64,0,33.64,33.73V89.27Q2282.89,123,2249.25,123Z"/><path class="cls-1" d="M2520.89,594.73v40.71q0,52.35,23.3,70.95T2633.92,725h55.94q66.42,0,89.72-18.61t23.31-70.94V587.77q0-52.34-18.09-70.36t-91.58-36.64l-159.34-41.88q-92-24.37-124-64.44t-32-139.9V212.48q0-120.75,49.44-166.62T2618.72,0h59.34Q2820,0,2869.44,45.89t49.45,166.7v26.72q0,33.7-33.65,33.69h-62.69q-33.66,0-33.66-33.77V199.66q0-52.41-23.33-71T2675.8,110H2621q-66.48,0-89.79,18.55t-23.31,70.68v32.44q0,52.16,18.11,70.11t91.78,36.5l159.33,41.86q91.83,24.45,123.81,64.58t32,140.17v37.22q0,121-49.44,166.94t-191.32,46h-60.47q-141.91,0-191.35-45.86t-49.42-166.61V594.67A33.68,33.68,0,0,1,2424.56,561h62.68Q2520.89,561,2520.89,594.73Z"/><path class="cls-1" d="M3500.89,566.61V545.7q0-33.71,33.66-33.7h62.69q33.65,0,33.65,33.72V567.8q0,154.62-54,210.4T3374.14,834h-82.5q-148.71,0-202.73-55.75t-54-210.25V266q0-154.47,54-210.23T3291.64,0h82.5q148.7,0,202.72,55.8t54,210.4v22.08q0,33.74-33.65,33.72h-62.69q-33.66,0-33.66-33.7V267.39q0-95.29-26.75-124.34T3367.19,114h-68.6q-80.22,0-107,29t-26.74,124.2V566.77q0,95.19,26.74,124.21t107,29h68.6q80.2,0,106.95-29T3500.89,566.61Z"/><path class="cls-1" d="M3963.19,9h78.74q34.71,0,45.14,32.39L4326.66,785.7a64.91,64.91,0,0,1,2.33,15q0,24.28-29.38,24.27h-63.5q-31.76,0-42.33-30.69L4152.88,660H3848.49L3808,793q-10.3,32-41.26,32h-61.91q-28.68,0-28.69-24.42a65.08,65.08,0,0,1,2.33-15.13L3918.05,41.14Q3928.46,9,3963.19,9Zm37.49,151.19L3881.38,552H4120Z"/><path class="cls-1" d="M4679.63,9H4965.8q146.58,0,201.83,56.38t55.26,209.81V558.81q0,153.45-55.26,209.81T4965.8,825H4679.63q-33.75,0-33.74-33.7V42.7Q4645.89,9,4679.63,9Zm413.26,548.61V276.39q0-95.26-26.81-124.33T4957.7,123H4775.89V711H4957.7q81.57,0,108.38-29T5092.89,557.61Z"/><path class="cls-1" d="M5800.25,123H5478.89V359h279.25q33.75,0,33.75,33.73v46.54A33.73,33.73,0,0,1,5758.16,473H5478.89V711h327.35q33.65,0,33.65,33.73v46.54q0,33.75-33.65,33.73H5382.55q-33.66,0-33.66-33.7V42.7q0-33.71,33.64-33.7h417.72q33.65,0,33.64,33.73V89.27Q5833.89,123,5800.25,123Z"/><path class="cls-1" d="M6072.89,594.73v40.71q0,52.35,23.3,70.95T6185.92,725h55.94q66.42,0,89.72-18.61t23.31-70.94V587.77q0-52.34-18.09-70.36t-91.58-36.64l-159.34-41.88q-92-24.37-124-64.44t-32-139.9V212.48q0-120.75,49.44-166.62T6170.72,0h59.34Q6372,0,6421.44,45.89t49.45,166.7v26.72q0,33.7-33.65,33.69h-62.69q-33.66,0-33.66-33.77V199.66q0-52.41-23.33-71T6227.8,110H6173q-66.48,0-89.79,18.55t-23.31,70.68v32.44q0,52.16,18.11,70.11t91.78,36.5l159.33,41.86q91.83,24.45,123.81,64.58t32,140.17v37.22q0,121-49.44,166.94t-191.32,46h-60.47q-141.91,0-191.35-45.86t-49.42-166.61V594.67A33.68,33.68,0,0,1,5976.56,561h62.68Q6072.89,561,6072.89,594.73Z"/><path class="cls-1" d="M6607.89,791.3V42.7q0-33.71,33.66-33.7h62.69q33.65,0,33.65,33.7V791.3q0,33.71-33.65,33.7h-62.69Q6607.89,825,6607.89,791.3Z"/><path class="cls-1" d="M7333.89,502H7232.64q-33.75,0-33.75-33.78V429.78q0-33.76,33.7-33.78h197.6q33.71,0,33.7,33.69V568q0,154.53-54,210.28T7207.14,834h-82.5q-148.71,0-202.73-55.75t-54-210.25V266q0-154.47,54-210.23T7124.64,0h82.5q148.7,0,202.72,55.83t54,210.48v14q0,33.74-33.65,33.72h-62.69q-33.66,0-33.66-33.72v-12.8q0-95.34-26.75-124.4t-107-29.08h-68.6q-80.22,0-107,29t-26.74,124.2V566.77q0,95.19,26.74,124.21t107,29h68.6q80.21,0,107-29t26.75-124.08Z"/><path class="cls-1" d="M8018.89,576.34V42.78Q8018.89,9,8052.55,9h62.69q33.65,0,33.65,33.7V791.3q0,33.71-33.65,33.7h-53.4q-31.34,0-46.42-27.69L7719.89,258.62V791.27q0,33.75-33.65,33.73h-62.69q-33.66,0-33.66-33.7V42.7q0-33.71,33.56-33.7h53.25q31.24,0,46.3,28Z"/></g></g></svg>