<svg xmlns="http://www.w3.org/2000/svg" viewBox="0 0 6351 835.05"><defs><style>.cls-1{fill:#fff;}</style></defs><title>ed_text</title><g id="Layer_2" data-name="Layer 2"><g id="Layer_1-2" data-name="Layer 1"><path class="cls-1" d="M451.36,123H130V359H409.25Q443,359,443,392.73v46.54A33.73,33.73,0,0,1,409.27,473H130V711H457.35Q491,711,491,744.73v46.54Q491,825,457.35,825H33.66Q0,825,0,791.3V42.7Q0,9,33.64,9H451.36Q485,9,485,42.73V89.27Q485,123,451.36,123Z"/><path class="cls-1" d="M723,594.73v40.71q0,52.35,23.3,70.95T836,725H892q66.42,0,89.72-18.61T1005,635.45V587.77q0-52.34-18.09-70.36t-91.58-36.64L736,438.89q-92-24.37-124-64.44t-32-139.9V212.48q0-120.75,49.44-166.62T820.83,0h59.34q141.95,0,191.38,45.89T1121,212.59v26.72q0,33.7-33.65,33.69h-62.69Q991,273,991,239.23V199.66q0-52.41-23.33-71T877.91,110h-54.8q-66.48,0-89.79,18.55T710,199.23v32.44q0,52.16,18.11,70.11t91.78,36.5l159.33,41.86q91.83,24.45,123.81,64.58t32,140.17v37.22q0,121-49.44,166.94t-191.32,46H833.81q-141.91,0-191.35-45.86T593,622.58V594.67A33.68,33.68,0,0,1,626.67,561h62.68Q723,561,723,594.73Z"/><path class="cls-1" d="M1703,566.61V545.7q0-33.71,33.66-33.7h62.69q33.64,0,33.65,33.72V567.8q0,154.62-54,210.4T1576.25,834h-82.5Q1345,834,1291,778.25T1237,568V266q0-154.47,54-210.23T1493.75,0h82.5Q1724.95,0,1779,55.8t54,210.4v22.08q0,33.74-33.65,33.72h-62.69Q1703,322,1703,288.3V267.39q0-95.29-26.75-124.34T1569.3,114h-68.6q-80.22,0-107,29T1367,267.2V566.77Q1367,662,1393.7,691t107,29h68.6q80.21,0,107-29T1703,566.61Z"/><path class="cls-1" d="M2165.3,9H2244q34.71,0,45.14,32.39L2528.77,785.7a65.11,65.11,0,0,1,2.33,15q0,24.28-29.38,24.27h-63.5q-31.75,0-42.33-30.69L2355,660H2050.6l-40.49,133q-10.3,32-41.26,32h-61.91q-28.68,0-28.69-24.42a65,65,0,0,1,2.33-15.13L2120.16,41.14Q2130.57,9,2165.3,9Zm37.49,151.19L2083.49,552h238.62Z"/><path class="cls-1" d="M2881.74,9h286.17q146.58,0,201.83,56.38T3425,275.19V558.81q0,153.45-55.26,209.81T3167.91,825H2881.74Q2848,825,2848,791.3V42.7Q2848,9,2881.74,9ZM3295,557.61V276.39q0-95.26-26.81-124.33T3159.81,123H2978V711h181.81q81.57,0,108.38-29T3295,557.61Z"/><path class="cls-1" d="M4002.36,123H3681V359h279.25q33.75,0,33.75,33.73v46.54A33.73,33.73,0,0,1,3960.27,473H3681V711h327.35q33.65,0,33.65,33.73v46.54q0,33.75-33.65,33.73H3584.66Q3551,825,3551,791.3V42.7Q3551,9,3584.64,9h417.72Q4036,9,4036,42.73V89.27Q4036,123,4002.36,123Z"/><path class="cls-1" d="M4275,594.73v40.71q0,52.35,23.3,70.95T4388,725H4444q66.42,0,89.72-18.61T4557,635.45V587.77q0-52.34-18.09-70.36t-91.58-36.64L4288,438.89q-92-24.37-124-64.44t-32-139.9V212.48q0-120.75,49.44-166.62T4372.83,0h59.34q141.94,0,191.38,45.89T4673,212.59v26.72q0,33.7-33.65,33.69h-62.69Q4543,273,4543,239.23V199.66q0-52.41-23.33-71T4429.91,110h-54.8q-66.48,0-89.79,18.55T4262,199.23v32.44q0,52.16,18.11,70.11t91.78,36.5l159.33,41.86q91.83,24.45,123.81,64.58t32,140.17v37.22q0,121-49.44,166.94t-191.32,46h-60.47q-141.92,0-191.35-45.86T4145,622.58V594.67A33.68,33.68,0,0,1,4178.67,561h62.68Q4275,561,4275,594.73Z"/><path class="cls-1" d="M4810,791.3V42.7Q4810,9,4843.66,9h62.69Q4940,9,4940,42.7V791.3q0,33.71-33.65,33.7h-62.69Q4810,825,4810,791.3Z"/><path class="cls-1" d="M5536,502H5434.75Q5401,502,5401,468.22V429.78q0-33.76,33.7-33.78h197.6q33.71,0,33.7,33.69V568q0,154.53-54,210.28T5409.25,834h-82.5Q5178,834,5124,778.25T5070,568V266q0-154.47,54-210.23T5326.75,0h82.5Q5557.95,0,5612,55.83t54,210.48v14q0,33.74-33.65,33.72h-62.69Q5536,314,5536,280.31v-12.8q0-95.34-26.75-124.4t-107-29.08h-68.6q-80.22,0-107,29t-26.74,124.2V566.77q0,95.19,26.74,124.21t107,29h68.6q80.2,0,107-29T5536,566.9Z"/><path class="cls-1" d="M6221,576.34V42.78Q6221,9,6254.66,9h62.69Q6351,9,6351,42.7V791.3q0,33.71-33.65,33.7H6264q-31.33,0-46.42-27.69L5922,258.62V791.27q0,33.75-33.65,33.73h-62.69Q5792,825,5792,791.3V42.7Q5792,9,5825.56,9h53.25q31.24,0,46.3,28Z"/></g></g></svg>