<svg xmlns="http://www.w3.org/2000/svg" viewBox="0 0 3850.97 539.5"><defs><style>.cls-1{font-size:500px;font-family:RohnRounded-Medium;font-weight:500;letter-spacing:0.05em;}.cls-1,.cls-4{fill:#121214;}.cls-2{letter-spacing:0.04em;}.cls-3{letter-spacing:0.05em;}</style></defs><title>edlogo_dark</title><g id="Layer_2" data-name="Layer 2"><g id="Layer_1-2" data-name="Layer 1"><text class="cls-1" transform="translate(782 425.5)">ES<tspan class="cls-2" x="589.99" y="0">C</tspan><tspan class="cls-3" x="909.5" y="0">A DESIGN</tspan></text><path class="cls-4" d="M620.24,233.75l-17-17h0L491.19,104,474.24,87a28.42,28.42,0,0,0-40.07-.11L429.05,92l-.15.15-256,254.65-93.55-94,96.73-96.22,23.68,23.8-72,71.65,45.44,45.68,90.76-90.28.61-.57,5.59-5.57c11-11,14.27-27.62.13-41.4l-.39-.37h0l-56.62-56.92-16.95-17h0l-.5-.51h0a28.4,28.4,0,0,0-39.54.39l-5.13,5.1-.15.15L13.6,227.26l-.16.14-5.12,5.1a28.4,28.4,0,0,0-.11,40.06l17,17,.15.15L135.6,400.62l.14.15,16.95,17,.15.14.73.74,0,0a28.4,28.4,0,0,0,39.16-.76l5.13-5.1c.15-.14.29-.3.43-.45L454,158l95.07,95.58-93.27,92.78L385,275.16,339.31,320.6l96,96.53h0l.27.27a28.42,28.42,0,0,0,40.07.11l5.5-5.48.43-.45L613.79,280.1l.45-.43,5.9-5.86A28.41,28.41,0,0,0,620.24,233.75Z"/><text/></g></g></svg>