<svg xmlns="http://www.w3.org/2000/svg" viewBox="0 0 3794.99 360"><defs><style>.cls-1{fill:#fff;}</style></defs><title>edlogo_light</title><g id="Layer_2" data-name="Layer 2"><g id="Layer_1-2" data-name="Layer 1"><path class="cls-1" d="M1008.49,53H869V155h120.5a14.5,14.5,0,0,1,14.5,14.5v20a14.5,14.5,0,0,1-14.5,14.5H869V307h141.5a14.5,14.5,0,0,1,14.5,14.5v19a14.5,14.5,0,0,1-14.5,14.5h-183A14.5,14.5,0,0,1,813,340.5V18.5A14.5,14.5,0,0,1,827.49,4h181A14.5,14.5,0,0,1,1023,18.5v20A14.5,14.5,0,0,1,1008.49,53Z"/><path class="cls-1" d="M1150,256.5v17q0,22.5,10,30.5t38.5,8h23.86q28.58,0,38.61-8t10-30.5V253q0-22.5-7.78-30.25T1223.86,207l-68.69-18q-39.62-10.5-53.4-27.75T1088,101V91.5q0-52,21.29-71.75T1191.71,0h25.55q61.13,0,82.43,19.75T1321,91.5v12a14.5,14.5,0,0,1-14.5,14.5h-27a14.5,14.5,0,0,1-14.5-14.5v-17q0-22.5-10-30.5t-38.5-8h-23.87Q1164,48,1154,56T1144,86.4v14q0,22.46,7.77,30.18t39.42,15.7l68.69,18q39.57,10.53,53.34,27.79T1327,252.36v16q0,52.06-21.31,71.85T1223.2,360h-25.71q-61,0-82.25-19.75T1094,268.5v-12a14.5,14.5,0,0,1,14.5-14.5h27A14.5,14.5,0,0,1,1150,256.5Z"/><path class="cls-1" d="M1596,244v-8.5a14.5,14.5,0,0,1,14.5-14.5h27a14.5,14.5,0,0,1,14.5,14.5v9q0,66.51-23.3,90.5t-87.42,24H1505.7q-64.12,0-87.42-24T1395,244.5v-130Q1395,48,1418.28,24T1505.7,0h35.79q64,0,87.25,24.09T1652,114.91v9.59a14.5,14.5,0,0,1-14.5,14.5h-27a14.5,14.5,0,0,1-14.5-14.5V115q0-41-11.54-53.5T1538.29,49h-29.61q-34.62,0-46.15,12.5T1451,115V244q0,41,11.54,53.5t46.15,12.5h29.61q34.62,0,46.16-12.5T1596,244Z"/><path class="cls-1" d="M1819.4,4h33.85q14.93,0,19.4,14.11l103,320a27.64,27.64,0,0,1,1,6.46q0,10.43-12.62,10.43h-27.29q-13.65,0-18.2-13.2l-17.6-57.8H1770.12l-17.43,57.24Q1748.24,355,1734.94,355h-26.61Q1696,355,1696,344.5a28,28,0,0,1,1-6.5L1800,18Q1804.47,4,1819.4,4Zm16.12,65.69L1784.27,238h102.51Z"/><path class="cls-1" d="M2163,18.5A14.5,14.5,0,0,1,2177.49,4h123q63,0,86.75,24.25T2411,118.5v122q0,66-23.75,90.25T2300.49,355h-123a14.5,14.5,0,0,1-14.5-14.5ZM2355,240V119q0-41-11.5-53.5T2297,53h-78V306h78q35,0,46.5-12.5T2355,240Z"/><path class="cls-1" d="M2685.49,53H2546V155h120.5a14.5,14.5,0,0,1,14.5,14.5v20a14.5,14.5,0,0,1-14.5,14.5H2546V307h141.5a14.5,14.5,0,0,1,14.5,14.5v19a14.5,14.5,0,0,1-14.5,14.5h-183a14.5,14.5,0,0,1-14.5-14.5V18.5A14.5,14.5,0,0,1,2504.49,4h181A14.5,14.5,0,0,1,2700,18.5v20A14.5,14.5,0,0,1,2685.49,53Z"/><path class="cls-1" d="M2827,256.5v17q0,22.5,10,30.5t38.5,8h23.87q28.58,0,38.61-8t10-30.5V253q0-22.5-7.77-30.25T2900.86,207l-68.69-18q-39.61-10.5-53.4-27.75T2765,101V91.5q0-52,21.3-71.75T2868.71,0h25.55q61.13,0,82.43,19.75T2998,91.5v12a14.5,14.5,0,0,1-14.5,14.5h-27a14.5,14.5,0,0,1-14.5-14.5v-17q0-22.5-10-30.5t-38.5-8h-23.86Q2841,48,2831,56T2821,86.4v14q0,22.46,7.78,30.18t39.42,15.7l68.69,18q39.57,10.53,53.34,27.79T3004,252.36v16q0,52.06-21.3,71.85T2900.2,360h-25.72q-61,0-82.25-19.75T2771,268.5v-12a14.5,14.5,0,0,1,14.5-14.5h27A14.5,14.5,0,0,1,2827,256.5Z"/><path class="cls-1" d="M3081,340.5V18.5A14.5,14.5,0,0,1,3095.49,4h27A14.5,14.5,0,0,1,3137,18.5v322a14.5,14.5,0,0,1-14.5,14.5h-27A14.5,14.5,0,0,1,3081,340.5Z"/><path class="cls-1" d="M3419,216h-44.5a14.5,14.5,0,0,1-14.5-14.5v-17a14.5,14.5,0,0,1,14.5-14.5h86a14.5,14.5,0,0,1,14.5,14.5v59.7q0,66.68-23.3,90.74T3364.27,359H3328.7q-64.12,0-87.42-24.06T3218,244.2V114.5Q3218,48,3241.28,24T3328.7,0h35.57q64.13,0,87.42,24t23.3,90.5v6a14.5,14.5,0,0,1-14.5,14.5h-27a14.5,14.5,0,0,1-14.5-14.5V115q0-41-11.54-53.5T3361.29,49h-29.61q-34.62,0-46.15,12.5T3274,115V244q0,41,11.54,53.5t46.15,12.5h29.61q34.62,0,46.16-12.5T3419,244Z"/><path class="cls-1" d="M3739,248V18.53Q3739,4,3753.52,4h27A14.5,14.5,0,0,1,3795,18.5v322a14.5,14.5,0,0,1-14.5,14.5h-23.11q-13.53,0-20.05-12L3610,111.5v229a14.5,14.5,0,0,1-14.5,14.5h-27Q3554,355,3554,340.5V18.5Q3554,4,3568.47,4h23q13.49,0,20,12.12Z"/><path class="cls-1" d="M620.24,163.5l-17-17h0L491.19,33.76l-16.95-17a28.42,28.42,0,0,0-40.07-.11l-5.12,5.1-.15.15-256,254.65-93.55-94,96.73-96.22,23.68,23.8-72,71.66,45.44,45.67,90.76-90.28.61-.57,5.59-5.56c11-11,14.27-27.63.13-41.41l-.39-.37h0L213.25,32.26l-16.95-17h0l-.5-.51,0,0a28.39,28.39,0,0,0-39.54.38l-5.13,5.1-.15.15L13.6,157l-.16.14-5.12,5.1a28.42,28.42,0,0,0-.11,40.07l17,17,.15.15L135.6,330.37l.14.15,16.95,17,.15.14.73.74,0,0a28.4,28.4,0,0,0,39.16-.76l5.13-5.1c.15-.14.29-.3.43-.45L454,87.75l95.07,95.58-93.27,92.78L385,204.91l-45.68,45.44,96,96.53h0l.27.27a28.42,28.42,0,0,0,40.07.11l5.5-5.48c.15-.14.29-.3.43-.45L613.79,209.85l.45-.42,5.9-5.87A28.41,28.41,0,0,0,620.24,163.5Z"/><text/></g></g></svg>